<mxfile host="app.diagrams.net" modified="2022-11-07T02:44:47.524Z" agent="5.0 (Windows NT 10.0; Win64; x64) AppleWebKit/537.36 (KHTML, like Gecko) Chrome/107.0.0.0 Safari/537.36 Edg/107.0.1418.35" etag="K-6jq0NPNaXIcn9wXoRd" version="20.5.2" type="github">
  <diagram id="rQ2sJkADrS01hE8YLVf3" name="Page-1">
    <mxGraphModel dx="488" dy="442" grid="1" gridSize="10" guides="1" tooltips="1" connect="1" arrows="1" fold="1" page="1" pageScale="1" pageWidth="850" pageHeight="1100" math="0" shadow="0">
      <root>
        <mxCell id="0" />
        <mxCell id="1" parent="0" />
        <mxCell id="rSsCVXrkZo28gq-cM43m-12" value="" style="shape=cube;whiteSpace=wrap;html=1;boundedLbl=1;backgroundOutline=1;darkOpacity=0.05;darkOpacity2=0.1;fillColor=#f8cecc;strokeColor=#b85450;" vertex="1" parent="1">
          <mxGeometry x="320" y="470" width="30" height="150" as="geometry" />
        </mxCell>
        <mxCell id="rSsCVXrkZo28gq-cM43m-13" value="" style="shape=cube;whiteSpace=wrap;html=1;boundedLbl=1;backgroundOutline=1;darkOpacity=0.05;darkOpacity2=0.1;fillColor=#ffe6cc;strokeColor=#d79b00;" vertex="1" parent="1">
          <mxGeometry x="300" y="470" width="35" height="150" as="geometry" />
        </mxCell>
        <mxCell id="rSsCVXrkZo28gq-cM43m-21" value="" style="shape=cube;whiteSpace=wrap;html=1;boundedLbl=1;backgroundOutline=1;darkOpacity=0.05;darkOpacity2=0.1;fillColor=#e1d5e7;strokeColor=#9673a6;" vertex="1" parent="1">
          <mxGeometry x="385" y="495" width="40" height="115" as="geometry" />
        </mxCell>
        <mxCell id="rSsCVXrkZo28gq-cM43m-7" value="" style="shape=cube;whiteSpace=wrap;html=1;boundedLbl=1;backgroundOutline=1;darkOpacity=0.05;darkOpacity2=0.1;fillColor=#f8cecc;strokeColor=#b85450;" vertex="1" parent="1">
          <mxGeometry x="195" y="470" width="35" height="150" as="geometry" />
        </mxCell>
        <mxCell id="rSsCVXrkZo28gq-cM43m-1" value="" style="shape=cube;whiteSpace=wrap;html=1;boundedLbl=1;backgroundOutline=1;darkOpacity=0.05;darkOpacity2=0.1;fillColor=#ffe6cc;strokeColor=#d79b00;" vertex="1" parent="1">
          <mxGeometry x="170" y="470" width="40" height="150" as="geometry" />
        </mxCell>
        <mxCell id="rSsCVXrkZo28gq-cM43m-2" value="" style="shape=cube;whiteSpace=wrap;html=1;boundedLbl=1;backgroundOutline=1;darkOpacity=0.05;darkOpacity2=0.1;fillColor=#dae8fc;strokeColor=#6c8ebf;" vertex="1" parent="1">
          <mxGeometry x="120" y="450" width="30" height="190" as="geometry" />
        </mxCell>
        <mxCell id="rSsCVXrkZo28gq-cM43m-3" value="&lt;font style=&quot;font-size: 8px;&quot;&gt;Conv1&lt;/font&gt;" style="text;html=1;strokeColor=none;fillColor=none;align=center;verticalAlign=middle;whiteSpace=wrap;rounded=0;" vertex="1" parent="1">
          <mxGeometry x="175" y="450" width="40" height="20" as="geometry" />
        </mxCell>
        <mxCell id="rSsCVXrkZo28gq-cM43m-4" value="&lt;font style=&quot;font-size: 8px;&quot;&gt;Image&lt;/font&gt;" style="text;html=1;strokeColor=none;fillColor=none;align=center;verticalAlign=middle;whiteSpace=wrap;rounded=0;" vertex="1" parent="1">
          <mxGeometry x="110" y="430" width="40" height="20" as="geometry" />
        </mxCell>
        <mxCell id="rSsCVXrkZo28gq-cM43m-5" value="&lt;font style=&quot;font-size: 6px;&quot;&gt;224 x 224 x 1&lt;/font&gt;" style="text;html=1;strokeColor=none;fillColor=none;align=center;verticalAlign=middle;whiteSpace=wrap;rounded=0;" vertex="1" parent="1">
          <mxGeometry x="120" y="640" width="40" height="10" as="geometry" />
        </mxCell>
        <mxCell id="rSsCVXrkZo28gq-cM43m-9" value="&lt;font style=&quot;font-size: 6px;&quot;&gt;224 x 224 x&amp;nbsp; 64&lt;/font&gt;" style="text;html=1;strokeColor=none;fillColor=none;align=center;verticalAlign=middle;whiteSpace=wrap;rounded=0;" vertex="1" parent="1">
          <mxGeometry x="185" y="620" width="50" height="10" as="geometry" />
        </mxCell>
        <mxCell id="rSsCVXrkZo28gq-cM43m-10" value="" style="shape=cube;whiteSpace=wrap;html=1;boundedLbl=1;backgroundOutline=1;darkOpacity=0.05;darkOpacity2=0.1;fillColor=#f8cecc;strokeColor=#b85450;" vertex="1" parent="1">
          <mxGeometry x="275" y="470" width="35" height="150" as="geometry" />
        </mxCell>
        <mxCell id="rSsCVXrkZo28gq-cM43m-11" value="" style="shape=cube;whiteSpace=wrap;html=1;boundedLbl=1;backgroundOutline=1;darkOpacity=0.05;darkOpacity2=0.1;fillColor=#ffe6cc;strokeColor=#d79b00;" vertex="1" parent="1">
          <mxGeometry x="250" y="470" width="40" height="150" as="geometry" />
        </mxCell>
        <mxCell id="rSsCVXrkZo28gq-cM43m-17" value="&lt;font style=&quot;font-size: 8px;&quot;&gt;ResBlock&amp;nbsp; x 3&lt;/font&gt;" style="text;html=1;strokeColor=none;fillColor=none;align=center;verticalAlign=middle;whiteSpace=wrap;rounded=0;" vertex="1" parent="1">
          <mxGeometry x="302.5" y="450" width="65" height="20" as="geometry" />
        </mxCell>
        <mxCell id="rSsCVXrkZo28gq-cM43m-18" value="" style="endArrow=classic;html=1;rounded=0;fontSize=8;exitX=1.007;exitY=0.535;exitDx=0;exitDy=0;exitPerimeter=0;entryX=-0.004;entryY=0.536;entryDx=0;entryDy=0;entryPerimeter=0;" edge="1" parent="1" source="rSsCVXrkZo28gq-cM43m-7" target="rSsCVXrkZo28gq-cM43m-11">
          <mxGeometry width="50" height="50" relative="1" as="geometry">
            <mxPoint x="300" y="540" as="sourcePoint" />
            <mxPoint x="350" y="490" as="targetPoint" />
          </mxGeometry>
        </mxCell>
        <mxCell id="rSsCVXrkZo28gq-cM43m-19" value="" style="endArrow=classic;html=1;rounded=0;fontSize=8;exitX=0.975;exitY=0.541;exitDx=0;exitDy=0;exitPerimeter=0;entryX=0;entryY=0.552;entryDx=0;entryDy=0;entryPerimeter=0;" edge="1" parent="1" source="rSsCVXrkZo28gq-cM43m-2" target="rSsCVXrkZo28gq-cM43m-1">
          <mxGeometry width="50" height="50" relative="1" as="geometry">
            <mxPoint x="270" y="530" as="sourcePoint" />
            <mxPoint x="320" y="480" as="targetPoint" />
          </mxGeometry>
        </mxCell>
        <mxCell id="rSsCVXrkZo28gq-cM43m-22" value="&lt;font style=&quot;font-size: 6px;&quot;&gt;128 x 128 x 64&lt;/font&gt;" style="text;html=1;strokeColor=none;fillColor=none;align=center;verticalAlign=middle;whiteSpace=wrap;rounded=0;" vertex="1" parent="1">
          <mxGeometry x="290" y="630" width="50" height="10" as="geometry" />
        </mxCell>
        <mxCell id="rSsCVXrkZo28gq-cM43m-23" value="" style="endArrow=classic;html=1;rounded=0;fontSize=8;exitX=0.993;exitY=0.544;exitDx=0;exitDy=0;exitPerimeter=0;entryX=-0.006;entryY=0.48;entryDx=0;entryDy=0;entryPerimeter=0;" edge="1" parent="1" target="rSsCVXrkZo28gq-cM43m-21">
          <mxGeometry width="50" height="50" relative="1" as="geometry">
            <mxPoint x="350.005" y="550.3000000000001" as="sourcePoint" />
            <mxPoint x="380.19000000000005" y="550.0000000000001" as="targetPoint" />
          </mxGeometry>
        </mxCell>
        <mxCell id="rSsCVXrkZo28gq-cM43m-26" value="" style="endArrow=none;html=1;rounded=0;fontSize=8;" edge="1" parent="1">
          <mxGeometry width="50" height="50" relative="1" as="geometry">
            <mxPoint x="240" y="660" as="sourcePoint" />
            <mxPoint x="240" y="550" as="targetPoint" />
          </mxGeometry>
        </mxCell>
        <mxCell id="rSsCVXrkZo28gq-cM43m-27" value="" style="endArrow=none;html=1;rounded=0;fontSize=8;" edge="1" parent="1">
          <mxGeometry width="50" height="50" relative="1" as="geometry">
            <mxPoint x="240" y="660" as="sourcePoint" />
            <mxPoint x="370" y="660" as="targetPoint" />
          </mxGeometry>
        </mxCell>
        <mxCell id="rSsCVXrkZo28gq-cM43m-28" value="" style="endArrow=classic;html=1;rounded=0;fontSize=8;" edge="1" parent="1">
          <mxGeometry width="50" height="50" relative="1" as="geometry">
            <mxPoint x="370" y="660" as="sourcePoint" />
            <mxPoint x="370" y="550" as="targetPoint" />
          </mxGeometry>
        </mxCell>
        <mxCell id="rSsCVXrkZo28gq-cM43m-51" value="" style="shape=cube;whiteSpace=wrap;html=1;boundedLbl=1;backgroundOutline=1;darkOpacity=0.05;darkOpacity2=0.1;fillColor=#d5e8d4;strokeColor=#82b366;" vertex="1" parent="1">
          <mxGeometry x="440" y="545" width="140" height="30" as="geometry" />
        </mxCell>
        <mxCell id="rSsCVXrkZo28gq-cM43m-52" value="" style="endArrow=classic;html=1;rounded=0;fontSize=8;exitX=0.981;exitY=0.566;exitDx=0;exitDy=0;exitPerimeter=0;entryX=0.025;entryY=0.486;entryDx=0;entryDy=0;entryPerimeter=0;" edge="1" parent="1" source="rSsCVXrkZo28gq-cM43m-21" target="rSsCVXrkZo28gq-cM43m-51">
          <mxGeometry width="50" height="50" relative="1" as="geometry">
            <mxPoint x="470" y="580" as="sourcePoint" />
            <mxPoint x="520" y="530" as="targetPoint" />
          </mxGeometry>
        </mxCell>
        <mxCell id="rSsCVXrkZo28gq-cM43m-53" value="FC1" style="text;html=1;strokeColor=none;fillColor=none;align=center;verticalAlign=middle;whiteSpace=wrap;rounded=0;fontSize=8;" vertex="1" parent="1">
          <mxGeometry x="480" y="515" width="60" height="30" as="geometry" />
        </mxCell>
        <mxCell id="rSsCVXrkZo28gq-cM43m-54" value="&lt;font style=&quot;font-size: 6px;&quot;&gt;1 x&amp;nbsp; 1024&lt;/font&gt;" style="text;html=1;strokeColor=none;fillColor=none;align=center;verticalAlign=middle;whiteSpace=wrap;rounded=0;" vertex="1" parent="1">
          <mxGeometry x="490" y="580" width="50" height="10" as="geometry" />
        </mxCell>
        <mxCell id="rSsCVXrkZo28gq-cM43m-55" value="" style="shape=cube;whiteSpace=wrap;html=1;boundedLbl=1;backgroundOutline=1;darkOpacity=0.05;darkOpacity2=0.1;fillColor=#d5e8d4;strokeColor=#82b366;" vertex="1" parent="1">
          <mxGeometry x="590" y="550" width="130" height="25" as="geometry" />
        </mxCell>
        <mxCell id="rSsCVXrkZo28gq-cM43m-56" value="FC2" style="text;html=1;strokeColor=none;fillColor=none;align=center;verticalAlign=middle;whiteSpace=wrap;rounded=0;fontSize=8;" vertex="1" parent="1">
          <mxGeometry x="630" y="523" width="60" height="30" as="geometry" />
        </mxCell>
        <mxCell id="rSsCVXrkZo28gq-cM43m-57" value="&lt;font style=&quot;font-size: 6px;&quot;&gt;1 x 512&lt;/font&gt;" style="text;html=1;strokeColor=none;fillColor=none;align=center;verticalAlign=middle;whiteSpace=wrap;rounded=0;" vertex="1" parent="1">
          <mxGeometry x="635" y="580" width="50" height="10" as="geometry" />
        </mxCell>
        <mxCell id="rSsCVXrkZo28gq-cM43m-58" value="" style="endArrow=classic;html=1;rounded=0;fontSize=8;exitX=0.961;exitY=0.505;exitDx=0;exitDy=0;exitPerimeter=0;entryX=0.077;entryY=0.4;entryDx=0;entryDy=0;entryPerimeter=0;" edge="1" parent="1" source="rSsCVXrkZo28gq-cM43m-51" target="rSsCVXrkZo28gq-cM43m-55">
          <mxGeometry width="50" height="50" relative="1" as="geometry">
            <mxPoint x="610" y="580" as="sourcePoint" />
            <mxPoint x="660" y="530" as="targetPoint" />
          </mxGeometry>
        </mxCell>
        <mxCell id="rSsCVXrkZo28gq-cM43m-59" value="" style="shape=cube;whiteSpace=wrap;html=1;boundedLbl=1;backgroundOutline=1;darkOpacity=0.05;darkOpacity2=0.1;fillColor=#bac8d3;strokeColor=#23445d;" vertex="1" parent="1">
          <mxGeometry x="730" y="547.5" width="30" height="30" as="geometry" />
        </mxCell>
        <mxCell id="rSsCVXrkZo28gq-cM43m-60" value="" style="endArrow=classic;html=1;rounded=0;fontSize=8;exitX=0.911;exitY=0.308;exitDx=0;exitDy=0;exitPerimeter=0;entryX=0.038;entryY=0.334;entryDx=0;entryDy=0;entryPerimeter=0;" edge="1" parent="1" source="rSsCVXrkZo28gq-cM43m-55" target="rSsCVXrkZo28gq-cM43m-59">
          <mxGeometry width="50" height="50" relative="1" as="geometry">
            <mxPoint x="710" y="590" as="sourcePoint" />
            <mxPoint x="760" y="540" as="targetPoint" />
          </mxGeometry>
        </mxCell>
        <mxCell id="rSsCVXrkZo28gq-cM43m-61" value="&lt;font style=&quot;font-size: 6px;&quot;&gt;1 x 27&lt;/font&gt;" style="text;html=1;strokeColor=none;fillColor=none;align=center;verticalAlign=middle;whiteSpace=wrap;rounded=0;" vertex="1" parent="1">
          <mxGeometry x="730" y="580" width="50" height="10" as="geometry" />
        </mxCell>
        <mxCell id="rSsCVXrkZo28gq-cM43m-62" value="" style="shape=cube;whiteSpace=wrap;html=1;boundedLbl=1;backgroundOutline=1;darkOpacity=0.05;darkOpacity2=0.1;fontSize=8;flipV=0;flipH=1;fillColor=#fad7ac;strokeColor=#b46504;" vertex="1" parent="1">
          <mxGeometry x="560" y="680" width="50" height="40" as="geometry" />
        </mxCell>
        <mxCell id="rSsCVXrkZo28gq-cM43m-63" value="" style="shape=cube;whiteSpace=wrap;html=1;boundedLbl=1;backgroundOutline=1;darkOpacity=0.05;darkOpacity2=0.1;fontSize=8;flipV=0;flipH=1;fillColor=#fad9d5;strokeColor=#ae4132;" vertex="1" parent="1">
          <mxGeometry x="560" y="730" width="50" height="40" as="geometry" />
        </mxCell>
        <mxCell id="rSsCVXrkZo28gq-cM43m-64" value="" style="shape=cube;whiteSpace=wrap;html=1;boundedLbl=1;backgroundOutline=1;darkOpacity=0.05;darkOpacity2=0.1;fontSize=8;flipV=0;flipH=1;fillColor=#d0cee2;strokeColor=#56517e;" vertex="1" parent="1">
          <mxGeometry x="560" y="780" width="50" height="40" as="geometry" />
        </mxCell>
        <mxCell id="rSsCVXrkZo28gq-cM43m-65" value="" style="shape=cube;whiteSpace=wrap;html=1;boundedLbl=1;backgroundOutline=1;darkOpacity=0.05;darkOpacity2=0.1;fontSize=8;flipV=0;flipH=1;fillColor=#d5e8d4;strokeColor=#82b366;" vertex="1" parent="1">
          <mxGeometry x="560" y="830" width="50" height="40" as="geometry" />
        </mxCell>
        <mxCell id="rSsCVXrkZo28gq-cM43m-66" value="" style="shape=cube;whiteSpace=wrap;html=1;boundedLbl=1;backgroundOutline=1;darkOpacity=0.05;darkOpacity2=0.1;fontSize=8;flipV=0;flipH=1;fillColor=#bac8d3;strokeColor=#23445d;" vertex="1" parent="1">
          <mxGeometry x="560" y="880" width="50" height="40" as="geometry" />
        </mxCell>
        <mxCell id="rSsCVXrkZo28gq-cM43m-67" value="Convolutional + ReLU" style="text;html=1;strokeColor=none;fillColor=none;align=center;verticalAlign=middle;whiteSpace=wrap;rounded=0;fontSize=8;" vertex="1" parent="1">
          <mxGeometry x="615" y="685" width="90" height="30" as="geometry" />
        </mxCell>
        <mxCell id="rSsCVXrkZo28gq-cM43m-68" value="BatchNormalisation&lt;span style=&quot;color: rgba(0, 0, 0, 0); font-family: monospace; font-size: 0px; text-align: start;&quot;&gt;%3CmxGraphModel%3E%3Croot%3E%3CmxCell%20id%3D%220%22%2F%3E%3CmxCell%20id%3D%221%22%20parent%3D%220%22%2F%3E%3CmxCell%20id%3D%222%22%20value%3D%22Convolutional%20%2B%20ReLu%22%20style%3D%22text%3Bhtml%3D1%3BstrokeColor%3Dnone%3BfillColor%3Dnone%3Balign%3Dcenter%3BverticalAlign%3Dmiddle%3BwhiteSpace%3Dwrap%3Brounded%3D0%3BfontSize%3D8%3B%22%20vertex%3D%221%22%20parent%3D%221%22%3E%3CmxGeometry%20x%3D%22615%22%20y%3D%22685%22%20width%3D%2290%22%20height%3D%2230%22%20as%3D%22geometry%22%2F%3E%3C%2FmxCell%3E%3C%2Froot%3E%3C%2FmxGraphModel%3E&lt;/span&gt;" style="text;html=1;strokeColor=none;fillColor=none;align=center;verticalAlign=middle;whiteSpace=wrap;rounded=0;fontSize=8;" vertex="1" parent="1">
          <mxGeometry x="615" y="735" width="90" height="30" as="geometry" />
        </mxCell>
        <mxCell id="rSsCVXrkZo28gq-cM43m-69" value="Max Pooling" style="text;html=1;strokeColor=none;fillColor=none;align=center;verticalAlign=middle;whiteSpace=wrap;rounded=0;fontSize=8;" vertex="1" parent="1">
          <mxGeometry x="615" y="785" width="90" height="30" as="geometry" />
        </mxCell>
        <mxCell id="rSsCVXrkZo28gq-cM43m-70" value="Fully Connected Layer" style="text;html=1;strokeColor=none;fillColor=none;align=center;verticalAlign=middle;whiteSpace=wrap;rounded=0;fontSize=8;" vertex="1" parent="1">
          <mxGeometry x="615" y="835" width="90" height="30" as="geometry" />
        </mxCell>
        <mxCell id="rSsCVXrkZo28gq-cM43m-71" value="Fully Connected Layer +&lt;br&gt;Softmax" style="text;html=1;strokeColor=none;fillColor=none;align=center;verticalAlign=middle;whiteSpace=wrap;rounded=0;fontSize=8;" vertex="1" parent="1">
          <mxGeometry x="615" y="885" width="90" height="30" as="geometry" />
        </mxCell>
      </root>
    </mxGraphModel>
  </diagram>
</mxfile>
